<?xml version="1.0" encoding="UTF-8" standalone="no"?>
<svg width="448px" height="74px" viewBox="0 0 448 74" version="1.1" xmlns="http://www.w3.org/2000/svg" xmlns:xlink="http://www.w3.org/1999/xlink" xmlns:sketch="http://www.bohemiancoding.com/sketch/ns">
    <!-- Generator: Sketch 3.4.4 (17249) - http://www.bohemiancoding.com/sketch -->
    <title>FED || DEAD</title>
    <desc>Created with Sketch.</desc>
    <defs></defs>
    <g id="Page-1" stroke="none" stroke-width="1" fill="none" fill-rule="evenodd" sketch:type="MSPage">
        <g id="1" sketch:type="MSArtboardGroup" transform="translate(-82.000000, -359.000000)" stroke="#000000" fill="#FFFFFF">
            <path d="M105.256,395.208 L105.256,399.384 L105.328,401.832 C105.328,402.600004 105.399999,403.199998 105.544,403.632 C105.784001,404.448004 106.431995,404.856 107.488,404.856 C108.016003,404.856 108.783995,404.772001 109.792,404.604 C110.800005,404.435999 111.567997,404.352 112.096,404.352 C114.928014,404.352 116.344,405.983984 116.344,409.248 C116.344,410.784008 115.852005,412.019995 114.868,412.956 C113.883995,413.892005 112.576008,414.36 110.944,414.36 C109.695994,414.36 107.836012,414.240001 105.364,414 C102.891988,413.759999 101.032006,413.64 99.784,413.64 C97.3359878,413.64 95.3920072,413.711999 93.952,413.856 C90.6399834,414.192002 88.7920019,414.36 88.408,414.36 C86.8719923,414.36 85.6360047,413.880005 84.7,412.92 C83.7639953,411.959995 83.296,410.688008 83.296,409.104 C83.296,407.711993 83.6679963,406.572004 84.412,405.684 C85.1560037,404.795996 86.1039942,404.352 87.256,404.352 C87.6400019,404.352 88.2159962,404.435999 88.984,404.604 C89.7520038,404.772001 90.3039983,404.856 90.64,404.856 C91.6000048,404.856 92.1999988,404.232006 92.44,402.984 C92.5360005,402.503998 92.584,401.496008 92.584,399.96 L92.584,380.016 C92.584,378.479992 92.5360005,377.496002 92.44,377.064 C92.1999988,375.815994 91.6000048,375.192 90.64,375.192 C90.2559981,375.192 89.6920037,375.275999 88.948,375.444 C88.2039963,375.612001 87.6160022,375.696 87.184,375.696 C86.0799945,375.696 85.1560037,375.240005 84.412,374.328 C83.6679963,373.415995 83.296,372.288007 83.296,370.944 C83.296,367.439982 85.0719822,365.688 88.624,365.688 C89.7280055,365.688 91.5039878,365.783999 93.952,365.976 C97.6480185,366.264001 100.671988,366.408 103.024,366.408 C104.656008,366.408 106.47999,366.384 108.496,366.336 C109.840007,366.288 112.52798,366.24 116.56,366.192 C118.192008,366.192 120.183988,366.144 122.536,366.048 L126.856,365.688 C127.432003,365.64 127.672,365.616 127.576,365.616 C129.976012,365.616 131.176,366.671989 131.176,368.784 C131.176,369.648004 131.080001,370.607995 130.888,371.664 C130.599999,373.248008 130.456,374.543995 130.456,375.552 C130.456,376.320004 130.587999,377.447993 130.852,378.936 C131.116001,380.424007 131.248,381.551996 131.248,382.32 C131.248,384.000008 130.744005,385.367995 129.736,386.424 C128.727995,387.480005 127.408008,388.008 125.776,388.008 C124.143992,388.008 122.860005,387.480005 121.924,386.424 C120.987995,385.367995 120.52,383.952009 120.52,382.176 C120.52,381.647997 120.615999,380.736006 120.808,379.44 C120.952001,378.479995 121.024,377.736003 121.024,377.208 C121.024,375.575992 119.824012,374.76 117.424,374.76 L109.576,374.76 C107.703991,374.76 106.516003,374.987998 106.012,375.444 C105.507997,375.900002 105.256,377.13599 105.256,379.152 L105.256,382.536 C105.256,384.024007 105.903994,384.768 107.2,384.768 C109.21601,384.768 110.224,384.072007 110.224,382.68 C110.224,382.535999 110.176,382.080004 110.08,381.312 C110.08,381.167999 110.08,380.976001 110.08,380.736 C110.032,380.495999 110.008,380.328 110.008,380.232 C110.008,378.359991 111.135989,377.424 113.392,377.424 C116.032013,377.424 117.352,378.671988 117.352,381.168 C117.352,381.648002 117.304,382.415995 117.208,383.472 C117.112,384.528005 117.064,385.895992 117.064,387.576 C117.064,388.536005 117.159999,389.98799 117.352,391.932 C117.544001,393.87601 117.64,395.327995 117.64,396.288 C117.64,399.216015 116.392012,400.68 113.896,400.68 C111.351987,400.68 110.08,399.336013 110.08,396.648 C110.08,396.552 110.104,396.408001 110.152,396.216 L110.152,395.856 L110.152,395.064 C110.152,393.863994 109.240009,393.264 107.416,393.264 C106.503995,393.264 105.916001,393.383999 105.652,393.624 C105.387999,393.864001 105.256,394.391996 105.256,395.208 L105.256,395.208 Z M160.624,374.76 C159.039992,374.76 157.984003,374.903999 157.456,375.192 C156.735996,375.624002 156.376,376.583993 156.376,378.072 L156.376,382.104 C156.376,382.920004 156.483999,383.531998 156.7,383.94 C156.916001,384.348002 157.479995,384.552 158.392,384.552 C160.504011,384.552 161.56,383.784008 161.56,382.248 L161.56,381.312 C161.512,381.023999 161.488,380.664002 161.488,380.232 C161.488,378.21599 162.663988,377.208 165.016,377.208 C167.464012,377.208 168.688,378.431988 168.688,380.88 C168.688,381.552003 168.64,382.295996 168.544,383.112 C168.351999,384.696008 168.256,386.159993 168.256,387.504 C168.256,388.752006 168.351999,390.33599 168.544,392.256 C168.736001,394.17601 168.832,395.519996 168.832,396.288 C168.832,399.120014 167.560013,400.536 165.016,400.536 C162.615988,400.536 161.416,399.312012 161.416,396.864 L161.416,396.504 C161.416,396.263999 161.464,395.688005 161.56,394.776 C161.56,393.623994 160.52801,393.048 158.464,393.048 C157.071993,393.048 156.376,393.815992 156.376,395.352 L156.376,400.752 C156.376,402.432008 156.675997,403.571997 157.276,404.172 C157.876003,404.772003 158.991992,405.072 160.624,405.072 L164.8,405.072 C167.872015,405.072 170.019994,404.808003 171.244,404.28 C172.468006,403.751997 173.08,402.816007 173.08,401.472 C173.08,400.799997 173.008001,399.996005 172.864,399.06 C172.719999,398.123995 172.648,397.344003 172.648,396.72 C172.648,394.943991 173.151995,393.552005 174.16,392.544 C175.168005,391.535995 176.535991,391.032 178.264,391.032 C181.768018,391.032 183.52,392.951981 183.52,396.792 C183.52,398.040006 183.448001,399.359993 183.304,400.752 C183.063999,403.056012 182.944,404.495997 182.944,405.072 C182.944,405.600003 183.063999,406.631992 183.304,408.168 C183.448001,409.080005 183.52,410.015995 183.52,410.976 C183.52,413.232011 182.104014,414.36 179.272,414.36 C178.359995,414.36 176.848011,414.288001 174.736,414.144 C171.231982,413.903999 165.640038,413.736 157.96,413.64 L151.552,413.64 C149.151988,413.64 147.160008,413.711999 145.576,413.856 L140.104,414.36 C140.056,414.36 139.960001,414.384 139.816,414.432 L139.456,414.432 C137.967993,414.432 136.756005,413.928005 135.82,412.92 C134.883995,411.911995 134.416,410.640008 134.416,409.104 C134.416,407.759993 134.787996,406.632005 135.532,405.72 C136.276004,404.807995 137.223994,404.352 138.376,404.352 C138.760002,404.352 139.335996,404.435999 140.104,404.604 C140.872004,404.772001 141.423998,404.856 141.76,404.856 C143.056006,404.856 143.704,403.224016 143.704,399.96 L143.704,380.016 C143.704,376.799984 143.056006,375.192 141.76,375.192 C141.471999,375.192 140.896004,375.287999 140.032,375.48 C139.407997,375.624001 138.856002,375.696 138.376,375.696 C137.271994,375.696 136.336004,375.240005 135.568,374.328 C134.799996,373.415995 134.416,372.288007 134.416,370.944 C134.416,367.439982 136.167982,365.688 139.672,365.688 C140.488004,365.688 142.143988,365.783999 144.64,365.976 C148.384019,366.264001 152.007982,366.408 155.512,366.408 C155.848002,366.408 158.727973,366.336001 164.152,366.192 C168.08802,366.096 170.679994,366 171.928,365.904 C173.99201,365.759999 176.151989,365.688 178.408,365.688 C181.096013,365.688 182.44,366.863988 182.44,369.216 C182.44,369.984004 182.356001,371.111993 182.188,372.6 C182.019999,374.088007 181.936,375.215996 181.936,375.984 C181.936,376.752004 182.043999,377.843993 182.26,379.26 C182.476001,380.676007 182.584,381.743996 182.584,382.464 C182.584,383.856007 182.068005,385.031995 181.036,385.992 C180.003995,386.952005 178.720008,387.432 177.184,387.432 C173.583982,387.432 171.784,385.584018 171.784,381.888 C171.784,381.263997 171.891999,380.400006 172.108,379.296 C172.324001,378.191994 172.432,377.376003 172.432,376.848 C172.432,375.791995 171.880006,375.144001 170.776,374.904 C170.391998,374.808 169.384008,374.76 167.752,374.76 L160.624,374.76 Z M195.472,404.856 C196.768006,404.856 197.416,403.224016 197.416,399.96 L197.416,380.016 C197.416,376.799984 196.768006,375.192 195.472,375.192 C195.087998,375.192 194.524004,375.275999 193.78,375.444 C193.035996,375.612001 192.448002,375.696 192.016,375.696 C190.911994,375.696 189.988004,375.240005 189.244,374.328 C188.499996,373.415995 188.128,372.288007 188.128,370.944 C188.128,369.359992 188.607995,368.088005 189.568,367.128 C190.528005,366.167995 191.775992,365.688 193.312,365.688 C194.128004,365.688 195.807987,365.831999 198.352,366.12 C200.032008,366.312001 201.639992,366.408 203.176,366.408 C203.752003,366.408 205.095989,366.336001 207.208,366.192 L212.464,365.832 C213.856007,365.736 215.223993,365.688 216.568,365.688 C225.256043,365.688 231.471981,369.359963 235.216,376.704 C237.328011,380.832021 238.384,385.271976 238.384,390.024 C238.384,394.776024 237.37601,399.14398 235.36,403.128 C233.34399,407.11202 230.656017,410.039991 227.296,411.912 C224.319985,413.544008 220.768021,414.36 216.64,414.36 C215.007992,414.36 213.616006,414.312 212.464,414.216 L207.208,413.784 C206.055994,413.688 204.712008,413.64 203.176,413.64 C201.25599,413.64 199.648006,413.711999 198.352,413.856 L195.472,414.144 C194.367994,414.288001 193.648002,414.36 193.312,414.36 C191.775992,414.36 190.528005,413.880005 189.568,412.92 C188.607995,411.959995 188.128,410.688008 188.128,409.104 C188.128,407.759993 188.499996,406.632005 189.244,405.72 C189.988004,404.807995 190.911994,404.352 192.016,404.352 C192.448002,404.352 193.047996,404.435999 193.816,404.604 C194.584004,404.772001 195.135998,404.856 195.472,404.856 L195.472,404.856 Z M214.192,374.904 C212.559992,374.904 211.468003,375.155997 210.916,375.66 C210.363997,376.164003 210.088,377.159993 210.088,378.648 L210.088,401.328 C210.088,402.816007 210.363997,403.823997 210.916,404.352 C211.468003,404.880003 212.559992,405.144 214.192,405.144 C216.832013,405.144 219.207989,404.064011 221.32,401.904 C223.768012,399.359987 224.992,395.592025 224.992,390.6 C224.992,384.983972 223.768012,380.832013 221.32,378.144 C220.215994,376.943994 219.016006,376.080003 217.72,375.552 C216.615994,375.119998 215.440006,374.904 214.192,374.904 L214.192,374.904 Z M271.864,432 L271.864,360 L281.224,360 L281.224,432 L271.864,432 Z M307.864,432 L307.864,360 L317.224,360 L317.224,432 L307.864,432 Z M357.184,404.856 C358.480006,404.856 359.128,403.224016 359.128,399.96 L359.128,380.016 C359.128,376.799984 358.480006,375.192 357.184,375.192 C356.799998,375.192 356.236004,375.275999 355.492,375.444 C354.747996,375.612001 354.160002,375.696 353.728,375.696 C352.623994,375.696 351.700004,375.240005 350.956,374.328 C350.211996,373.415995 349.84,372.288007 349.84,370.944 C349.84,369.359992 350.319995,368.088005 351.28,367.128 C352.240005,366.167995 353.487992,365.688 355.024,365.688 C355.840004,365.688 357.519987,365.831999 360.064,366.12 C361.744008,366.312001 363.351992,366.408 364.888,366.408 C365.464003,366.408 366.807989,366.336001 368.92,366.192 L374.176,365.832 C375.568007,365.736 376.935993,365.688 378.28,365.688 C386.968043,365.688 393.183981,369.359963 396.928,376.704 C399.040011,380.832021 400.096,385.271976 400.096,390.024 C400.096,394.776024 399.08801,399.14398 397.072,403.128 C395.05599,407.11202 392.368017,410.039991 389.008,411.912 C386.031985,413.544008 382.480021,414.36 378.352,414.36 C376.719992,414.36 375.328006,414.312 374.176,414.216 L368.92,413.784 C367.767994,413.688 366.424008,413.64 364.888,413.64 C362.96799,413.64 361.360006,413.711999 360.064,413.856 L357.184,414.144 C356.079994,414.288001 355.360002,414.36 355.024,414.36 C353.487992,414.36 352.240005,413.880005 351.28,412.92 C350.319995,411.959995 349.84,410.688008 349.84,409.104 C349.84,407.759993 350.211996,406.632005 350.956,405.72 C351.700004,404.807995 352.623994,404.352 353.728,404.352 C354.160002,404.352 354.759996,404.435999 355.528,404.604 C356.296004,404.772001 356.847998,404.856 357.184,404.856 L357.184,404.856 Z M375.904,374.904 C374.271992,374.904 373.180003,375.155997 372.628,375.66 C372.075997,376.164003 371.8,377.159993 371.8,378.648 L371.8,401.328 C371.8,402.816007 372.075997,403.823997 372.628,404.352 C373.180003,404.880003 374.271992,405.144 375.904,405.144 C378.544013,405.144 380.919989,404.064011 383.032,401.904 C385.480012,399.359987 386.704,395.592025 386.704,390.6 C386.704,384.983972 385.480012,380.832013 383.032,378.144 C381.927994,376.943994 380.728006,376.080003 379.432,375.552 C378.327994,375.119998 377.152006,374.904 375.904,374.904 L375.904,374.904 Z M439.336,392.904 C439.336,394.92001 439.084003,396.263997 438.58,396.936 C438.075997,397.608003 437.080007,397.944 435.592,397.944 L418.024,397.944 C417.159996,397.944 416.620001,398.027999 416.404,398.196 C416.187999,398.364001 416.08,398.783997 416.08,399.456 C416.08,401.47201 416.727994,403.151993 418.024,404.496 C419.320006,405.840007 420.95199,406.512 422.92,406.512 C424.93601,406.512 426.999989,405.408011 429.112,403.2 C430.552007,401.663992 432.135991,400.896 433.864,400.896 C435.304007,400.896 436.467996,401.303996 437.356,402.12 C438.244004,402.936004 438.688,403.967994 438.688,405.216 C438.688,408.000014 437.164015,410.36399 434.116,412.308 C431.067985,414.25201 427.360022,415.224 422.992,415.224 C417.279971,415.224 412.720017,413.496017 409.312,410.04 C405.903983,406.583983 404.2,401.976029 404.2,396.216 C404.2,390.407971 405.891983,385.716018 409.276,382.14 C412.660017,378.563982 417.087973,376.776 422.56,376.776 C427.648025,376.776 431.715985,378.239985 434.764,381.168 C437.812015,384.096015 439.336,388.007976 439.336,392.904 L439.336,392.904 Z M416.44,389.304 C416.44,389.592001 416.511999,389.831999 416.656,390.024 C416.800001,390.216001 417.303996,390.312 418.168,390.312 L426.232,390.312 C426.952004,390.312 427.395999,390.228001 427.564,390.06 C427.732001,389.891999 427.816,389.592002 427.816,389.16 C427.816,387.911994 427.264006,386.820005 426.16,385.884 C425.055994,384.947995 423.760007,384.48 422.272,384.48 C420.35199,384.48 418.792006,385.223993 417.592,386.712 C416.823996,387.672005 416.44,388.535996 416.44,389.304 L416.44,389.304 Z M475.912,415.224 C471.97598,415.224 469.336007,413.640016 467.992,410.472 C464.631983,413.640016 460.648023,415.224 456.04,415.224 C452.247981,415.224 449.224011,414.22801 446.968,412.236 C444.711989,410.24399 443.584,407.592017 443.584,404.28 C443.584,399.239975 445.767978,395.976007 450.136,394.488 C452.008009,393.863997 454.167988,393.336002 456.616,392.904 C460.024017,392.327997 462.339994,391.668004 463.564,390.924 C464.788006,390.179996 465.4,389.040008 465.4,387.504 C465.4,386.399994 464.932005,385.476004 463.996,384.732 C463.059995,383.987996 461.896007,383.616 460.504,383.616 C458.919992,383.616 458.128,384.119995 458.128,385.128 C458.128,385.464002 458.152,385.799998 458.2,386.136 L458.2,386.424 C458.2,387.768007 457.636006,388.895995 456.508,389.808 C455.379994,390.720005 453.976008,391.176 452.296,391.176 C450.37599,391.176 448.792006,390.600006 447.544,389.448 C446.295994,388.295994 445.672,386.856009 445.672,385.128 C445.672,382.535987 447.039986,380.496007 449.776,379.008 C452.512014,377.519993 456.279976,376.776 461.08,376.776 C466.264026,376.776 470.127987,377.567992 472.672,379.152 C475.408014,380.880009 476.776,384.095976 476.776,388.8 L476.776,403.704 C476.776,405.240008 477.159996,406.008 477.928,406.008 C478.312002,406.008 478.671998,405.984 479.008,405.936 C479.152001,405.888 479.319999,405.864 479.512,405.864 C480.616006,405.864 481.551996,406.247996 482.32,407.016 C483.088004,407.784004 483.472,408.719994 483.472,409.824 C483.472,411.408008 482.764007,412.703995 481.348,413.712 C479.931993,414.720005 478.120011,415.224 475.912,415.224 L475.912,415.224 Z M465.472,399.816 L465.472,398.232 C465.135998,398.424001 463.024019,399.023995 459.136,400.032 C456.495987,400.704003 455.176,401.735993 455.176,403.128 C455.176,405.336011 456.471987,406.44 459.064,406.44 C463.336021,406.44 465.472,404.232022 465.472,399.816 L465.472,399.816 Z M500.752,377.28 C504.400018,377.28 507.759985,378.695986 510.832,381.528 L510.832,376.344 C510.832,374.615991 510.232006,373.752 509.032,373.752 C508.743999,373.752 508.168004,373.8 507.304,373.896 C506.679997,374.088001 506.056003,374.184 505.432,374.184 C504.519995,374.184 503.752003,373.800004 503.128,373.032 C502.503997,372.263996 502.192,371.304006 502.192,370.152 C502.192,367.079985 503.823984,365.544 507.088,365.544 C508.144005,365.544 508.911998,365.568 509.392,365.616 C511.31201,365.808001 512.607997,365.904 513.28,365.904 C513.904003,365.904 514.815994,365.856 516.016,365.76 C517.216006,365.664 518.103997,365.616 518.68,365.616 C519.880006,365.616 520.707998,365.891997 521.164,366.444 C521.620002,366.996003 521.848,368.015993 521.848,369.504 L521.848,402.264 C521.848,404.712012 522.303995,405.936 523.216,405.936 C523.504001,405.936 523.863998,405.864001 524.296,405.72 C524.584001,405.624 524.967998,405.576 525.448,405.576 C527.51201,405.576 528.544,406.799988 528.544,409.248 C528.544,410.736007 528.184004,411.947995 527.464,412.884 C526.743996,413.820005 525.784006,414.288 524.584,414.288 L524.152,414.288 L521.632,413.856 C521.055997,413.76 520.240005,413.712 519.184,413.712 C517.935994,413.712 516.904004,413.76 516.088,413.856 C514.887994,414.000001 514.24,414.072 514.144,414.072 C512.655993,414.072 511.912,413.208009 511.912,411.48 L511.912,408.816 C509.415988,413.088021 505.672025,415.224 500.68,415.224 C496.263978,415.224 492.628014,413.412018 489.772,409.788 C486.915986,406.163982 485.488,401.592028 485.488,396.072 C485.488,390.455972 486.891986,385.920017 489.7,382.464 C492.508014,379.007983 496.191977,377.28 500.752,377.28 L500.752,377.28 Z M503.272,386.352 C501.495991,386.352 500.044006,387.191992 498.916,388.872 C497.787994,390.552008 497.152001,392.831986 497.008,395.712 C497.008,395.712 497.008,396.023997 497.008,396.648 C497.008,399.576015 497.571994,401.879992 498.7,403.56 C499.828006,405.240008 501.35199,406.08 503.272,406.08 C505.384011,406.08 507.099993,405.168009 508.42,403.344 C509.740007,401.519991 510.4,399.096015 510.4,396.072 C510.4,393.143985 509.752006,390.792009 508.456,389.016 C507.159994,387.239991 505.432011,386.352 503.272,386.352 L503.272,386.352 Z" id="FED-||-DEAD" sketch:type="MSShapeGroup"></path>
        </g>
    </g>
</svg>