<svg width="448" height="74" viewBox="0 0 448 74" xmlns="http://www.w3.org/2000/svg">
  <title>
    FED || DEAD
  </title>
  <path d="M23.256 36.208v4.176l.072 2.448c0 .768.072 1.368.216 1.8.24.816.888 1.224 1.944 1.224.528 0 1.296-.084 2.304-.252 1.008-.168 1.776-.252 2.304-.252 2.832 0 4.248 1.632 4.248 4.896 0 1.536-.492 2.772-1.476 3.708-.984.936-2.292 1.404-3.924 1.404-1.248 0-3.108-.12-5.58-.36s-4.332-.36-5.58-.36c-2.448 0-4.392.072-5.832.216-3.312.336-5.16.504-5.544.504-1.536 0-2.772-.48-3.708-1.44-.936-.96-1.404-2.232-1.404-3.816 0-1.392.372-2.532 1.116-3.42.744-.888 1.692-1.332 2.844-1.332.384 0 .96.084 1.728.252.768.168 1.32.252 1.656.252.96 0 1.56-.624 1.8-1.872.096-.48.144-1.488.144-3.024V21.016c0-1.536-.048-2.52-.144-2.952-.24-1.248-.84-1.872-1.8-1.872-.384 0-.948.084-1.692.252-.744.168-1.332.252-1.764.252-1.104 0-2.028-.456-2.772-1.368-.744-.912-1.116-2.04-1.116-3.384 0-3.504 1.776-5.256 5.328-5.256 1.104 0 2.88.096 5.328.288 3.696.288 6.72.432 9.072.432 1.632 0 3.456-.024 5.472-.072 1.344-.048 4.032-.096 8.064-.144 1.632 0 3.624-.048 5.976-.144l4.32-.36c.576-.048.816-.072.72-.072 2.4 0 3.6 1.056 3.6 3.168 0 .864-.096 1.824-.288 2.88-.288 1.584-.432 2.88-.432 3.888 0 .768.132 1.896.396 3.384s.396 2.616.396 3.384c0 1.68-.504 3.048-1.512 4.104s-2.328 1.584-3.96 1.584c-1.632 0-2.916-.528-3.852-1.584-.936-1.056-1.404-2.472-1.404-4.248 0-.528.096-1.44.288-2.736.144-.96.216-1.704.216-2.232 0-1.632-1.2-2.448-3.6-2.448h-7.848c-1.872 0-3.06.228-3.564.684-.504.456-.756 1.692-.756 3.708v3.384c0 1.488.648 2.232 1.944 2.232 2.016 0 3.024-.696 3.024-2.088 0-.144-.048-.6-.144-1.368v-.576c-.048-.24-.072-.408-.072-.504 0-1.872 1.128-2.808 3.384-2.808 2.64 0 3.96 1.248 3.96 3.744 0 .48-.048 1.248-.144 2.304-.096 1.056-.144 2.424-.144 4.104 0 .96.096 2.412.288 4.356.192 1.944.288 3.396.288 4.356 0 2.928-1.248 4.392-3.744 4.392-2.544 0-3.816-1.344-3.816-4.032 0-.096.024-.24.072-.432v-1.152c0-1.2-.912-1.8-2.736-1.8-.912 0-1.5.12-1.764.36s-.396.768-.396 1.584zM78.624 15.76c-1.584 0-2.64.144-3.168.432-.72.432-1.08 1.392-1.08 2.88v4.032c0 .816.108 1.428.324 1.836.216.408.78.612 1.692.612 2.112 0 3.168-.768 3.168-2.304v-.936c-.048-.288-.072-.648-.072-1.08 0-2.016 1.176-3.024 3.528-3.024 2.448 0 3.672 1.224 3.672 3.672 0 .672-.048 1.416-.144 2.232-.192 1.584-.288 3.048-.288 4.392 0 1.248.096 2.832.288 4.752.192 1.92.288 3.264.288 4.032 0 2.832-1.272 4.248-3.816 4.248-2.4 0-3.6-1.224-3.6-3.672v-.36c0-.24.048-.816.144-1.728 0-1.152-1.032-1.728-3.096-1.728-1.392 0-2.088.768-2.088 2.304v5.4c0 1.68.3 2.82.9 3.42.6.6 1.716.9 3.348.9H82.8c3.072 0 5.22-.264 6.444-.792 1.224-.528 1.836-1.464 1.836-2.808 0-.672-.072-1.476-.216-2.412-.144-.936-.216-1.716-.216-2.34 0-1.776.504-3.168 1.512-4.176s2.376-1.512 4.104-1.512c3.504 0 5.256 1.92 5.256 5.76 0 1.248-.072 2.568-.216 3.96-.24 2.304-.36 3.744-.36 4.32 0 .528.12 1.56.36 3.096.144.912.216 1.848.216 2.808 0 2.256-1.416 3.384-4.248 3.384-.912 0-2.424-.072-4.536-.216-3.504-.24-9.096-.408-16.776-.504h-6.408c-2.4 0-4.392.072-5.976.216l-5.472.504c-.048 0-.144.024-.288.072h-.36c-1.488 0-2.7-.504-3.636-1.512-.936-1.008-1.404-2.28-1.404-3.816 0-1.344.372-2.472 1.116-3.384.744-.912 1.692-1.368 2.844-1.368.384 0 .96.084 1.728.252.768.168 1.32.252 1.656.252 1.296 0 1.944-1.632 1.944-4.896V21.016c0-3.216-.648-4.824-1.944-4.824-.288 0-.864.096-1.728.288-.624.144-1.176.216-1.656.216-1.104 0-2.04-.456-2.808-1.368-.768-.912-1.152-2.04-1.152-3.384 0-3.504 1.752-5.256 5.256-5.256.816 0 2.472.096 4.968.288 3.744.288 7.368.432 10.872.432.336 0 3.216-.072 8.64-.216 3.936-.096 6.528-.192 7.776-.288 2.064-.144 4.224-.216 6.48-.216 2.688 0 4.032 1.176 4.032 3.528 0 .768-.084 1.896-.252 3.384-.168 1.488-.252 2.616-.252 3.384 0 .768.108 1.86.324 3.276.216 1.416.324 2.484.324 3.204 0 1.392-.516 2.568-1.548 3.528s-2.316 1.44-3.852 1.44c-3.6 0-5.4-1.848-5.4-5.544 0-.624.108-1.488.324-2.592.216-1.104.324-1.92.324-2.448 0-1.056-.552-1.704-1.656-1.944-.384-.096-1.392-.144-3.024-.144h-7.128zm34.848 30.096c1.296 0 1.944-1.632 1.944-4.896V21.016c0-3.216-.648-4.824-1.944-4.824-.384 0-.948.084-1.692.252-.744.168-1.332.252-1.764.252-1.104 0-2.028-.456-2.772-1.368-.744-.912-1.116-2.04-1.116-3.384 0-1.584.48-2.856 1.44-3.816s2.208-1.44 3.744-1.44c.816 0 2.496.144 5.04.432 1.68.192 3.288.288 4.824.288.576 0 1.92-.072 4.032-.216l5.256-.36c1.392-.096 2.76-.144 4.104-.144 8.688 0 14.904 3.672 18.648 11.016 2.112 4.128 3.168 8.568 3.168 13.32 0 4.752-1.008 9.12-3.024 13.104s-4.704 6.912-8.064 8.784c-2.976 1.632-6.528 2.448-10.656 2.448-1.632 0-3.024-.048-4.176-.144l-5.256-.432c-1.152-.096-2.496-.144-4.032-.144-1.92 0-3.528.072-4.824.216l-2.88.288c-1.104.144-1.824.216-2.16.216-1.536 0-2.784-.48-3.744-1.44-.96-.96-1.44-2.232-1.44-3.816 0-1.344.372-2.472 1.116-3.384.744-.912 1.668-1.368 2.772-1.368.432 0 1.032.084 1.8.252.768.168 1.32.252 1.656.252zm18.72-29.952c-1.632 0-2.724.252-3.276.756-.552.504-.828 1.5-.828 2.988v22.68c0 1.488.276 2.496.828 3.024.552.528 1.644.792 3.276.792 2.64 0 5.016-1.08 7.128-3.24 2.448-2.544 3.672-6.312 3.672-11.304 0-5.616-1.224-9.768-3.672-12.456-1.104-1.2-2.304-2.064-3.6-2.592-1.104-.432-2.28-.648-3.528-.648zM189.864 73V1h9.36v72h-9.36zm36 0V1h9.36v72h-9.36zm49.32-27.144c1.296 0 1.944-1.632 1.944-4.896V21.016c0-3.216-.648-4.824-1.944-4.824-.384 0-.948.084-1.692.252-.744.168-1.332.252-1.764.252-1.104 0-2.028-.456-2.772-1.368-.744-.912-1.116-2.04-1.116-3.384 0-1.584.48-2.856 1.44-3.816s2.208-1.44 3.744-1.44c.816 0 2.496.144 5.04.432 1.68.192 3.288.288 4.824.288.576 0 1.92-.072 4.032-.216l5.256-.36c1.392-.096 2.76-.144 4.104-.144 8.688 0 14.904 3.672 18.648 11.016 2.112 4.128 3.168 8.568 3.168 13.32 0 4.752-1.008 9.12-3.024 13.104s-4.704 6.912-8.064 8.784c-2.976 1.632-6.528 2.448-10.656 2.448-1.632 0-3.024-.048-4.176-.144l-5.256-.432c-1.152-.096-2.496-.144-4.032-.144-1.92 0-3.528.072-4.824.216l-2.88.288c-1.104.144-1.824.216-2.16.216-1.536 0-2.784-.48-3.744-1.44-.96-.96-1.44-2.232-1.44-3.816 0-1.344.372-2.472 1.116-3.384.744-.912 1.668-1.368 2.772-1.368.432 0 1.032.084 1.8.252.768.168 1.32.252 1.656.252zm18.72-29.952c-1.632 0-2.724.252-3.276.756-.552.504-.828 1.5-.828 2.988v22.68c0 1.488.276 2.496.828 3.024.552.528 1.644.792 3.276.792 2.64 0 5.016-1.08 7.128-3.24 2.448-2.544 3.672-6.312 3.672-11.304 0-5.616-1.224-9.768-3.672-12.456-1.104-1.2-2.304-2.064-3.6-2.592-1.104-.432-2.28-.648-3.528-.648zm63.432 18c0 2.016-.252 3.36-.756 4.032-.504.672-1.5 1.008-2.988 1.008h-17.568c-.864 0-1.404.084-1.62.252-.216.168-.324.588-.324 1.26 0 2.016.648 3.696 1.944 5.04 1.296 1.344 2.928 2.016 4.896 2.016 2.016 0 4.08-1.104 6.192-3.312 1.44-1.536 3.024-2.304 4.752-2.304 1.44 0 2.604.408 3.492 1.224.888.816 1.332 1.848 1.332 3.096 0 2.784-1.524 5.148-4.572 7.092s-6.756 2.916-11.124 2.916c-5.712 0-10.272-1.728-13.68-5.184-3.408-3.456-5.112-8.064-5.112-13.824 0-5.808 1.692-10.5 5.076-14.076 3.384-3.576 7.812-5.364 13.284-5.364 5.088 0 9.156 1.464 12.204 4.392 3.048 2.928 4.572 6.84 4.572 11.736zm-22.896-3.6c0 .288.072.528.216.72.144.192.648.288 1.512.288h8.064c.72 0 1.164-.084 1.332-.252.168-.168.252-.468.252-.9 0-1.248-.552-2.34-1.656-3.276-1.104-.936-2.4-1.404-3.888-1.404-1.92 0-3.48.744-4.68 2.232-.768.96-1.152 1.824-1.152 2.592zm59.472 25.92c-3.936 0-6.576-1.584-7.92-4.752-3.36 3.168-7.344 4.752-11.952 4.752-3.792 0-6.816-.996-9.072-2.988-2.256-1.992-3.384-4.644-3.384-7.956 0-5.04 2.184-8.304 6.552-9.792 1.872-.624 4.032-1.152 6.48-1.584 3.408-.576 5.724-1.236 6.948-1.98 1.224-.744 1.836-1.884 1.836-3.42 0-1.104-.468-2.028-1.404-2.772-.936-.744-2.1-1.116-3.492-1.116-1.584 0-2.376.504-2.376 1.512 0 .336.024.672.072 1.008v.288c0 1.344-.564 2.472-1.692 3.384-1.128.912-2.532 1.368-4.212 1.368-1.92 0-3.504-.576-4.752-1.728-1.248-1.152-1.872-2.592-1.872-4.32 0-2.592 1.368-4.632 4.104-6.12 2.736-1.488 6.504-2.232 11.304-2.232 5.184 0 9.048.792 11.592 2.376 2.736 1.728 4.104 4.944 4.104 9.648v14.904c0 1.536.384 2.304 1.152 2.304.384 0 .744-.024 1.08-.072.144-.048.312-.072.504-.072 1.104 0 2.04.384 2.808 1.152.768.768 1.152 1.704 1.152 2.808 0 1.584-.708 2.88-2.124 3.888-1.416 1.008-3.228 1.512-5.436 1.512zm-10.44-15.408v-1.584c-.336.192-2.448.792-6.336 1.8-2.64.672-3.96 1.704-3.96 3.096 0 2.208 1.296 3.312 3.888 3.312 4.272 0 6.408-2.208 6.408-6.624zm35.28-22.536c3.648 0 7.008 1.416 10.08 4.248v-5.184c0-1.728-.6-2.592-1.8-2.592-.288 0-.864.048-1.728.144-.624.192-1.248.288-1.872.288-.912 0-1.68-.384-2.304-1.152-.624-.768-.936-1.728-.936-2.88 0-3.072 1.632-4.608 4.896-4.608 1.056 0 1.824.024 2.304.072 1.92.192 3.216.288 3.888.288.624 0 1.536-.048 2.736-.144 1.2-.096 2.088-.144 2.664-.144 1.2 0 2.028.276 2.484.828.456.552.684 1.572.684 3.06v32.76c0 2.448.456 3.672 1.368 3.672.288 0 .648-.072 1.08-.216.288-.096.672-.144 1.152-.144 2.064 0 3.096 1.224 3.096 3.672 0 1.488-.36 2.7-1.08 3.636-.72.936-1.68 1.404-2.88 1.404h-.432l-2.52-.432c-.576-.096-1.392-.144-2.448-.144-1.248 0-2.28.048-3.096.144-1.2.144-1.848.216-1.944.216-1.488 0-2.232-.864-2.232-2.592v-2.664c-2.496 4.272-6.24 6.408-11.232 6.408-4.416 0-8.052-1.812-10.908-5.436-2.856-3.624-4.284-8.196-4.284-13.716 0-5.616 1.404-10.152 4.212-13.608 2.808-3.456 6.492-5.184 11.052-5.184zm2.52 9.072c-1.776 0-3.228.84-4.356 2.52-1.128 1.68-1.764 3.96-1.908 6.84v.936c0 2.928.564 5.232 1.692 6.912 1.128 1.68 2.652 2.52 4.572 2.52 2.112 0 3.828-.912 5.148-2.736 1.32-1.824 1.98-4.248 1.98-7.272 0-2.928-.648-5.28-1.944-7.056-1.296-1.776-3.024-2.664-5.184-2.664z" stroke="#000" fill="#FFF" fill-rule="evenodd"/>
</svg>
