<svg xmlns="http://www.w3.org/2000/svg" viewBox="0 0 287 310">
    <path fill="#333" d="M0 0h287v203H0z"/>
    <path fill="#333" d="M72.864 262.344C72.864 293.448 60.576 309 36 309H6.336v-89.424h30.24c13.152 0 22.488 3.672 28.008 11.016 5.52 7.344 8.28 17.928 8.28 31.752zm-27.432 20.52c1.488-3.6 2.232-9.648 2.232-18.144 0-8.496-.792-14.52-2.376-18.072-1.584-3.552-4.968-5.328-10.152-5.328h-4.32v46.944h4.752c5.088 0 8.376-1.8 9.864-5.4zM130.464 309H82.08v-89.424h49.824l-1.44 22.032h-23.76V255h20.592v19.008h-20.592v14.832h25.2l-1.44 20.16zm74.016 0h-24.048l-2.736-14.112h-16.992L157.968 309h-22.896l16.416-89.424h36.576L204.48 309zm-29.52-30.96l-5.04-31.968h-1.008l-5.04 31.968h11.088zm103.536-15.696c0 31.104-12.288 46.656-36.864 46.656h-29.664v-89.424h30.24c13.152 0 22.488 3.672 28.008 11.016 5.52 7.344 8.28 17.928 8.28 31.752zm-27.432 20.52c1.488-3.6 2.232-9.648 2.232-18.144 0-8.496-.792-14.52-2.376-18.072-1.584-3.552-4.968-5.328-10.152-5.328h-4.32v46.944h4.752c5.088 0 8.376-1.8 9.864-5.4z"/>
    <path fill="#fff" d="M96.72 135.608H72.96V149h19.152v19.008H72.96V203H48.336v-89.424H98.16l-1.44 22.032zM152.16 203h-48.384v-89.424H153.6l-1.44 22.032H128.4V149h20.592v19.008H128.4v14.832h25.2L152.16 203zm76.32-46.656c0 31.104-12.288 46.656-36.864 46.656h-29.664v-89.424h30.24c13.152 0 22.488 3.672 28.008 11.016 5.52 7.344 8.28 17.928 8.28 31.752zm-27.432 20.52c1.488-3.6 2.232-9.648 2.232-18.144 0-8.496-.792-14.52-2.376-18.072-1.584-3.552-4.968-5.328-10.152-5.328h-4.32v46.944h4.752c5.088 0 8.376-1.8 9.864-5.4z"/>
</svg>
